<svg width="375" height="1131" viewBox="0 0 375 1131" fill="none" xmlns="http://www.w3.org/2000/svg">
<path d="M377.731 488.555C346.264 482.508 270.893 444.421 221.143 340.455C158.955 210.498 108.287 169.161 -5.02412 157.991" stroke="#AF70A1" stroke-opacity="0.19" stroke-linecap="round"/>
<path d="M407.221 802.329C376.654 792.714 292.237 790.459 199.098 858.349C82.6741 943.212 18.4564 955.544 -86.5776 911.588" stroke="#BEEDCE" stroke-linecap="round"/>
<path d="M421.5 710.5C389.554 712.98 248.255 743.466 187.159 841.197C110.79 963.36 55.806 998.755 -58.0433 997.148" stroke="#10DDC4" stroke-opacity="0.29" stroke-linecap="round"/>
<path d="M472.461 391.884C440.613 395.411 338.902 422.839 192.979 286.781C119.639 218.399 -53.013 196.687 -142 225.068" stroke="#FEDFBA" stroke-linecap="round"/>
<path d="M445.64 314.539C417.976 330.707 335.095 350.777 230.77 301.784C134.787 256.709 47.5422 271.366 -9.74709 297.791" stroke="#657CF7" stroke-opacity="0.38" stroke-linecap="round"/>
<path d="M437.663 886.484C411.992 867.308 333.064 837.28 222.721 870.573C84.7922 912.19 20.1073 902.605 -64.4973 826.406" stroke="#4EA2D1" stroke-opacity="0.24" stroke-linecap="round"/>
</svg>
